<?xml version="1.0" encoding="utf-8"?>
<svg xmlns="http://www.w3.org/2000/svg" width="480" height="480" viewBox="0 0 512 512">
  <path fill="#EF4823" d="M157,209.2c-6-3.2-13.3-3.9-20-4c-14.2-0.1-30.3-3.8-44.7-1.3c19.7,12,44.7,17.5,67.6,18.2C161.5,217.4,162.1,211.9,157,209.2z" />
  <path fill="#F6851F" d="M449.9,209.9C449.9,209.9,449.9,209.9,449.9,209.9c-24.5-6.7-49.7-9.9-75-11.7c-24.4-1.7-48.1-1.7-71.1,7.6c-5.6,2.3-14.8,7.8-12.5,15.4c2,6.7,8.6,10.6,15.2,11.6c10.9,1.8,22,0.8,33,1.4c11.8,0.6,23,5.1,34.8,5.4c2,0,3.5,0.9,4.6,2.2c6.9,0.8,13.9,1.9,20.8,1c1.9-0.3,3.3,0.3,4.3,1.3c1.5-11.4,12.3-18.2,22.4-22.2c7.9-3.1,18-6.3,26.8-4.8C452.3,214.6,451.2,212.2,449.9,209.9z" />
  <path fill="#127274" d="M241.7,246.1c-6.8-0.8-13.7-1.7-20.3-3.3c-9.2-2.1-19.8-4.7-27.9-9.6c-3.9-2.4-7.2-5.6-10.7-8.6c-2.5-2.1-5.5-5-9-5.2c-0.5,0-0.9-0.1-1.4-0.2c-0.5,3.9-1.8,7.7-3.4,11.3c-0.8,1.7-2.8,3.2-4.8,3.2c-7.1,0-14.3-0.5-21.4-1.4c12.7,11.4,25.5,23.3,41.3,29.5c6.1,2.4,12.6,3.1,19.1,3.7c3.5,0.3,7,0.7,10.5,0.7c1.4,0,2.7,0,4.1-0.1c0,0,0,0,0,0c2.3-1.6,5.5-1.8,7.4,0.3c2.3-6.6,7.2-11.5,13-15.4c2.4-1.6,4.9-3.1,7.4-4.5C244.2,246.5,242.9,246.3,241.7,246.1z" />
  <path fill="#EF4823" d="M283.2,309.5c-1.9-6.4-4.5-15-11.1-17.4c-12.4-4.5-27.7-1.7-39.3-8.9c-3.1-2-6.1-4.9-7.5-8.5c-3,3.2-10.4,3.7-17.9,3.2c-0.4,0.9-1.2,1.7-2.3,2.3c-4.9,2.7-9.7,5.5-14.4,8.4c-2,1.2-4.1,2.4-6.2,3.7c6.6,1.2,13,3.8,18.8,6.9c5.9,3.1,11.9,6.9,16.5,11.8c1.5,0,2.9,0.5,3.9,1.6c2.4,0.6,4.5,2.6,4.5,5.2c0,0.4,0,0.9,0.1,1.3c0,0.1,0.1,0.1,0.1,0.1c0.8,1,1.4,2,1.5,3.3c0,0.3,0,0.7,0,1c6.7,0.5,13.3,1.4,20,1.6c6.9,0.2,13.8,1.1,20.6,2.3c5,0.9,10.4,1.9,15.4,3.6C286.5,324,285.3,316.3,283.2,309.5z" />
  <path fill="#74CCCF" d="M439.6,195.4c-2.3-2.7-4.7-5.4-7.1-8.1c-7.4-8.2-15.3-16.1-23.8-23.3c-7.3-6.2-15.9-13.9-25.5-16c-0.3-0.1-0.6-0.2-0.9-0.3c-0.7,0.1-1.4,0.2-2,0.5c-0.4,0.2-0.6,0.6-0.8,1.4c-0.7,3.7,0.4,8,1.5,11.8c2.4,7.9,6.9,15.4,8.7,23.4c0.2,1.1,0.2,2.1,0,3C406.6,189.4,423.2,191.7,439.6,195.4z" />
  <path fill="#EF4823" d="M417.6,323.2c-2.4-9.1-4.3-18.2-7.7-27c-3.4-8.8-7.4-17.6-9.8-26.8c-0.8-3-2.1-7.2-2.6-11.2c-6.5,1.6-12.8,4.1-18.7,7.3c3.8,5.1,6.3,11.5,8.9,17.2c4.4,9.6,8.6,19.3,13.2,28.8c4.4,9.2,8.9,18.4,14.7,26.8c1.8,2.6,3.6,5.2,5.9,7.3C421.2,338,419.6,330.5,417.6,323.2z" />
  <path fill="#BCBCBC" d="M468.1 334.5c-6.8-16.2-24.6-28.7-42.5-27.7 4.4 15.4 8.5 31.6 7.3 47.6-.1 1.9-2 3.8-3.8 4.4-8.1 2.6-14.8-3.4-19.6-9.3-5.6-6.9-9.9-14.8-13.9-22.7-6.2 10.6-9.2 23.6-8.8 35 .3.3.5.6.7.9 2.3 3.6 4.8 7.2 7.8 10.2 13.3 13.3 33.6 20.2 51.4 11.6C464.3 376.1 475.9 353.1 468.1 334.5zM214.5 323.3c-5.5-9.1-17-14.6-26.7-17.9-4.9-1.7-10.1-2.7-15.1-1-5.7 1.8-10.5 5.1-15.5 8.1-6 3.6-37.7 20.4-38.9 2.5-.2-2.7.5-5.5 1.8-8.1-1.6 0-3.1.2-4.7.4-24.1 3.9-35.9 32.5-35.2 54.6.3.3.5.6.7.9 2.3 3.6 4.8 7.2 7.8 10.2 13.3 13.3 33.6 20.2 51.4 11.6 7.3-3.5 13.5-9.5 17.8-16.7-7.4-1.6-14.2-4.7-20-10.1-1 .1-2.1.2-3.1.4-.5.1-1 .2-1.5.3-2 1.9-5.2 2.8-8.1.9-.9-.6-1.5-1.3-1.9-2-2.4-.4-4.5-2-4.9-5.1-2.6-22.4 28-26.6 43.9-27.8 10.9-.8 21.7-.6 32.6-.8C201.5 323.5 208 323.3 214.5 323.3 214.6 323.3 214.5 323.3 214.5 323.3z" />
  <path fill="#EF4823" d="M451.6 228.4c.8.3-1.8 0-2.6 0-1.8.1-3.6.3-5.4.6-4.1.7-8.2 1.9-12.2 3.4-4.6 1.8-14.8 5.8-15.8 11.8.6 0 1.1 0 1.7 0 5.4.2 10.8.9 16.1 1.5 3.9.4 8.5 1.1 12.3 0 7.4-2.2 9.9-9.7 9.7-17.2C454.3 228.9 453 228.9 451.6 228.4zM288.5 345.1c-6.4-3.6-14.1-5-21.3-6.3-6.6-1.1-13.4-1.3-18.9-2.1-17.5-2.4-35-1.9-52.6-1.6-9.5.2-18.9-.1-28.4.5-8.7.5-17.8 1.3-26.1 4.1-4.2 1.4-9 3.4-10.7 7.2 3.4-.9 7.5-1.6 10.6-1 3.1.6 5.3 4.1 7.9 5.9 2.1 1.4 4.6 2.6 7 3.4 5.1 1.8 10.7 2.4 16.1 2.5 11.9.2 23.6-1.7 35.4-2.2 11.6-.5 23.3.4 34.9.2 12.3-.2 25.4-.6 37-4.9 2.8-1 5.6-2.2 8-3.9.4-.3 1.1-.9 1.6-1.4C289 345.4 288.8 345.3 288.5 345.1z" />
  <path fill="#127274" d="M494.8,301.2c-17.5-17.5-45.4-20.6-68.9-17.2c-2.5,0.4-5.1,0.9-7.6,1.4c1.4,3.4,2.7,6.8,3.9,10.2c16.4-1.8,33.6,5,45,17c15,15.8,19.5,36.9,9.5,56.8c-9.1,18.2-27.1,31.6-48.1,30.6c-21.2-1-39.5-12.8-50.6-30.7c0,0,0,0,0,0c-1.4-0.8-2.4-2.3-2.5-4.4c-1.2-16.5,3.7-36,14.4-50.2c-2.3-4.9-4.5-9.8-6.8-14.7c-7.5,5.3-13.9,11.9-18.6,20.1c-10.8,19-12.3,42.3-3.5,62.2c1.7-0.1,3.4,0.7,4.5,2.7c8.2,14.1,19.6,26.1,34.6,33c14.3,6.6,30.3,8.5,45.9,6.4c15.7-2,29.7-7.4,40.3-19.6c9.7-11.1,15.8-24.9,19.6-39C511.4,344.7,511.2,317.6,494.8,301.2z" />
  <path fill="#EF4823" d="M216.6 267.3c-1 .9-1.9 2.6-1.1 5.4C214.8 270.6 215.4 268.7 216.6 267.3zM372.1 252.8c-2 0-3.5-.9-4.6-2.2-4.7-.6-9.4-1.6-14.1-2.7-6.8-1.6-13.3-2.2-20.3-2.2-11.9-.1-25.5 1.1-36.6-3.8-2.6-1.1-5-2.5-7.2-4.2-.4.5-.9 1-1.6 1.5-13.4 8.2-29 12.1-42 21-3 2-11.1 7.3-9.1 11.5 1.5 3 9.8 4.2 13.3 4.8 12.2 2.1 28.7 1.4 36.7 12.6 9 12.7 13.2 32.4 10.2 47.9.9.8 1.7 1.7 2.4 2.6.1 0 .2 0 .3 0h18.8c.6-14.1 4.3-28.1 11.1-40.5 10.9-19.9 28.2-36.4 48.9-45.8C376.3 253 374.2 252.9 372.1 252.8zM187.6 275.2c-3.6-.8-7.1-1.9-10.5-3.3-5.5 1.4-10.7 3.9-15.6 6.9 1.6 3.9-1.5 6.7-4.9 7-.5.3-.9.5-1.4.9-1.6 1.1-3.1 2.3-4.5 3.5-3.8 3.2-7.6 6.8-11 10.6-1.5 1.6-3 3.2-4.4 4.9v4c-.8-.3-1.6-.6-2.4-.9-.5.8-1 1.5-1.5 2.3 11.8-1.7 21.3-10.6 32-15.6.2-.5.5-1 .9-1.4 4.8-6 12.6-10.2 19.1-14.2 2.3-1.4 4.5-2.7 6.8-4.1C189 275.5 188.2 275.3 187.6 275.2z" />
  <path fill="#127274" d="M169.9,369.4c-9.1,18.2-27.1,31.6-48.1,30.6c-21.2-1-39.5-12.8-50.6-30.7c0,0,0,0,0,0c-1.4-0.8-2.4-2.3-2.5-4.4c-1.8-25.3,10.6-57.7,36.3-66.9c7.4-2.6,15.2-3.2,22.9-2.2c3-3.3,6.2-6.2,8.7-8.5c1.1-1,2.7-2.7,4.6-4.4c-7.4-0.4-14.9,0.1-21.9,1.1c-23.8,3.5-49,14.3-61.5,36.2c-10.8,19-12.3,42.3-3.5,62.2c1.7-0.1,3.4,0.7,4.5,2.7c8.2,14.1,19.6,26.1,34.6,33c14.3,6.6,30.3,8.5,45.9,6.4c15.7-2,29.7-7.4,40.3-19.6c9.1-10.5,15.1-23.5,19-36.8C189.3,368.8,179.4,369.8,169.9,369.4z" />
  <path fill="#EF4823" d="M152.3,284.6C152.3,284.6,152.3,284.6,152.3,284.6c1.5,1.2,3.3,1.4,4.2,1.2C155.1,285.8,153.6,285.5,152.3,284.6z" />
  <path fill="#010101" d="M507.8,298.7c-12.6-17.3-34.6-25.2-55.2-27c-12.9-1.2-25.9-0.2-38.5,2.7c-2-5.7-3.7-11.6-4.4-17.7c0.1-0.2,0.3-0.4,0.4-0.6c4.2-0.4,8.5-0.4,12.8,0c9.5,0.9,19.5,3.2,28.8-0.1c11-4,15.1-16.2,15.7-26.8c0.7-13.2-6.9-26.3-14.5-36.5c-6.4-8.5-14.2-16.3-21.7-23.8c-7-7.1-14.5-13.8-22.4-19.9c-5-3.8-10.4-7.6-16.2-10.1c-0.7-1.2-2-2-3.8-2.3c-6.3-0.9-13.2-0.6-17.6,4.6c-3.7,4.5-3.7,10.9-2.8,16.3c1.1,6.4,3.3,12.5,5.7,18.5c1.4,3.5,3.3,7.1,4.4,10.8c-4.2-0.3-8.3-0.6-12.5-0.8c-13.4-0.8-26.3-0.8-39.6,1.5c-12.4,2.2-26.7,5.4-36.9,13.2c-6.8,5.2-11.1,13.4-9.6,22c0.4,2.3,1.1,4.4,2.2,6.4c-0.3,0.1-0.6,0.3-0.8,0.4c-6.7,4.1-14,7.2-21.2,10.4c-0.8-3.6-4.9-6.6-8.9-4c0.7-0.4,1.1-0.7,1.3-0.8c-0.3,0.1-0.8,0.2-1.5,0.2c-1.1,0-2.2-0.1-3.3-0.2c-3.3-0.3-6.7-0.8-10-1.2c-7-1-13.8-2.2-20.6-4.1c-9.1-2.5-17-5.5-24.2-11.8c-6-5.3-11.6-9.6-19.8-10.1c-0.7,0-1.3,0-1.9,0.2c-0.6-1.3-1.3-2.5-2.2-3.7c-5.2-6.8-14.3-9.1-22.4-10.2c-10.5-1.3-21.3-1.1-31.8-1.8c-11.7-0.8-24.2-1.5-35.2,3.1c-5,2.1-4.4,8.4-1,10.7c0,1.4,0.6,2.8,2.3,4c12.7,8.6,27.2,14.6,42.4,18.5c0.1,1.3,0.7,2.6,2,3.7c12.2,10.1,24.5,22.9,38.4,32.1c-4.6,2.2-9,4.8-13.1,7.7c-1.5-0.2-3-0.4-4.5-0.5c-22.8-2-46.1,2.5-66.5,12.9c-40.1,20.6-53.9,71.4-32,110.1c1.3,2.3,3.3,3,5.3,2.6c12.6,18.5,30.8,31.8,52.9,37.1c23,5.5,51,2.6,70.6-11.2c18.6-13,28.6-34.8,34.4-56.1c21.6-0.8,43.2,1.7,64.6-3c8.5-1.8,19.1-5.4,24.2-13c0.3,0,0.6,0.1,0.9,0.1h24.1c3.3,0,5.4-3.3,5.4-6.2c-0.7-28.6,15.6-56.6,39.1-73.3c4,5.1,6.5,11.8,9.1,17.7c-33.8,22.9-44.3,69.3-24,105.3c1.3,2.3,3.3,3,5.3,2.6c12.6,18.5,30.8,31.8,52.9,37.1c23,5.5,51,2.6,70.6-11.2c19.2-13.4,29.2-36.1,34.9-58.1c0.5-2.1,1-4.2,1.4-6.4v-32.9C517.4,316.1,513.7,306.7,507.8,298.7z M409.9,296.2c3.4,8.8,5.3,17.9,7.7,27c2,7.3,3.7,14.8,4,22.4c-2.3-2.1-4.2-4.7-5.9-7.3c-5.8-8.4-10.3-17.6-14.7-26.8c-4.5-9.5-8.8-19.2-13.2-28.8c-2.6-5.7-5.1-12.1-8.9-17.2c5.9-3.2,12.2-5.6,18.7-7.3c0.5,4,1.8,8.2,2.6,11.2C402.5,278.6,406.5,287.4,409.9,296.2z M425.6,306.8c17.8-1,35.7,11.5,42.5,27.7c7.8,18.6-3.8,41.7-21.4,50.1c-17.8,8.6-38.1,1.7-51.4-11.6c-3-3-5.5-6.6-7.8-10.2c-0.2-0.4-0.5-0.7-0.7-0.9c-0.4-11.4,2.6-24.4,8.8-35c4,7.9,8.3,15.8,13.9,22.7c4.7,5.8,11.5,11.9,19.6,9.3c1.8-0.6,3.6-2.4,3.8-4.4C434.1,338.4,430,322.3,425.6,306.8z M455.5,228.5c0.1,7.4-2.3,15-9.7,17.2c-3.8,1.1-8.4,0.5-12.3,0c-5.4-0.6-10.7-1.3-16.1-1.5c-0.6,0-1.1,0-1.7,0c1-6,11.2-10,15.8-11.8c3.9-1.5,8-2.7,12.2-3.4c1.8-0.3,3.6-0.5,5.4-0.6c0.8,0,3.4,0.3,2.6,0C453,228.9,454.3,228.9,455.5,228.5z M379.6,149.7c0.1-0.8,0.4-1.2,0.8-1.4c0.6-0.3,1.3-0.4,2-0.5c0.3,0.1,0.6,0.2,0.9,0.3c9.6,2.2,18.2,9.8,25.5,16c8.4,7.2,16.3,15.1,23.8,23.3c2.4,2.7,4.8,5.3,7.1,8.1c-16.4-3.7-33.1-6-49.8-7.6c0.2-0.9,0.3-1.9,0-3c-1.8-8-6.3-15.5-8.7-23.4C380,157.7,378.9,153.3,379.6,149.7z M303.9,205.8c23-9.4,46.7-9.4,71.1-7.6c25.2,1.8,50.5,5,74.9,11.7c0,0,0,0,0,0c1.3,2.3,2.4,4.7,3.4,7.2c-8.8-1.5-18.9,1.7-26.8,4.8c-10.1,4-20.9,10.8-22.4,22.2c-1-1-2.5-1.5-4.3-1.3c-7,0.9-13.9-0.2-20.8-1c-1-1.2-2.6-2.1-4.6-2.2c-11.8-0.3-23-4.7-34.8-5.4c-11-0.6-22,0.3-33-1.4c-6.7-1.1-13.2-4.9-15.2-11.6C289.1,213.6,298.3,208.1,303.9,205.8z M92.3,203.9c14.4-2.5,30.5,1.2,44.7,1.3c6.7,0,14,0.7,20,4c5.1,2.7,4.6,8.2,2.9,12.9C137,221.5,112,215.9,92.3,203.9z M142.8,232.4c7.2,0.9,14.4,1.4,21.4,1.4c1.9,0,4-1.5,4.8-3.2c1.6-3.6,2.9-7.4,3.4-11.3c0.4,0.1,0.9,0.2,1.4,0.2c3.5,0.2,6.5,3.1,9,5.2c3.5,3,6.8,6.1,10.7,8.6c8.1,5,18.7,7.5,27.9,9.6c6.7,1.5,13.5,2.4,20.3,3.3c1.2,0.1,2.5,0.3,3.9,0.5c-2.5,1.4-5,2.9-7.4,4.5c-5.8,3.9-10.6,8.8-13,15.4c-1.9-2.1-5.2-1.9-7.4-0.3c0,0,0,0,0,0c-1.3,0.1-2.7,0.1-4.1,0.1c-3.5,0-7-0.4-10.5-0.7c-6.5-0.7-13-1.3-19.1-3.7C168.3,255.7,155.5,243.7,142.8,232.4z M229.9,322.7c-0.1-1.3-0.7-2.4-1.5-3.3c0,0,0,0-0.1-0.1c0-0.4-0.1-0.9-0.1-1.3c0-2.6-2.1-4.6-4.5-5.2c-1-1-2.4-1.6-3.9-1.6c-4.6-4.9-10.6-8.7-16.5-11.8c-5.8-3.1-12.2-5.7-18.8-6.9c2.1-1.3,4.3-2.5,6.2-3.7c4.7-2.9,9.5-5.7,14.4-8.4c1.1-0.6,1.9-1.4,2.3-2.3c7.5,0.5,14.9,0,17.9-3.2c1.4,3.5,4.4,6.5,7.5,8.5c11.6,7.2,26.8,4.4,39.3,8.9c6.6,2.4,9.2,10.9,11.1,17.4c2,6.8,3.2,14.4,2.6,21.7c-5-1.7-10.4-2.7-15.4-3.6c-6.8-1.2-13.7-2.1-20.6-2.3c-6.6-0.2-13.3-1.1-20-1.6C229.9,323.4,229.9,323.1,229.9,322.7z M118.3,352.2c0.3,3,2.5,4.7,4.9,5.1c0.4,0.8,1,1.4,1.9,2c2.9,2,6.1,1.1,8.1-0.9c0.5-0.1,1-0.2,1.5-0.3c1-0.2,2.1-0.3,3.1-0.4c5.8,5.4,12.7,8.5,20,10.1c-4.3,7.2-10.5,13.2-17.8,16.7c-17.8,8.6-38.1,1.7-51.4-11.6c-3-3-5.5-6.6-7.8-10.2c-0.2-0.4-0.5-0.7-0.7-0.9c-0.7-22.1,11.1-50.8,35.2-54.6c1.6-0.2,3.1-0.4,4.7-0.4c-1.2,2.7-1.9,5.4-1.8,8.1c1.1,17.9,32.9,1.1,38.9-2.5c5.1-3.1,9.9-6.3,15.5-8.1c5.1-1.6,10.2-0.6,15.1,1c9.7,3.3,21.2,8.8,26.7,17.9c0,0,0,0,0,0.1c-6.6,0-13.1,0.2-19.7,0.3c-10.9,0.2-21.8,0-32.6,0.8C146.3,325.6,115.8,329.8,118.3,352.2z M215.4,272.8c-0.8-2.8,0.1-4.5,1.1-5.4C215.4,268.7,214.8,270.6,215.4,272.8z M152.3,284.6c1.2,0.9,2.7,1.3,4.2,1.2C155.6,286,153.8,285.8,152.3,284.6C152.3,284.6,152.3,284.6,152.3,284.6z M150.7,290.1c1.5-1.2,3-2.4,4.5-3.5c0.4-0.3,0.9-0.6,1.4-0.9c3.5-0.3,6.6-3.1,4.9-7c4.9-3,10.1-5.5,15.6-6.9c3.4,1.4,6.9,2.5,10.5,3.3c0.6,0.1,1.5,0.3,2.5,0.5c-2.3,1.3-4.5,2.7-6.8,4.1c-6.4,4-14.3,8.2-19.1,14.2c-0.4,0.5-0.7,0.9-0.9,1.4c-10.7,5-20.2,13.9-32,15.6c0.4-0.8,0.9-1.5,1.5-2.3c0.8,0.3,1.6,0.5,2.4,0.9v-4c1.4-1.7,2.9-3.3,4.4-4.9C143.1,296.9,146.9,293.2,150.7,290.1z M179.4,404.8c-10.6,12.2-24.6,17.5-40.3,19.6c-15.6,2-31.5,0.2-45.9-6.4c-14.9-6.9-26.4-18.9-34.6-33c-1.1-2-2.8-2.7-4.5-2.7c-8.8-19.9-7.2-43.2,3.5-62.2c12.4-21.9,37.6-32.7,61.5-36.2c7-1,14.5-1.5,21.9-1.1c-1.9,1.7-3.5,3.4-4.6,4.4c-2.5,2.4-5.6,5.3-8.7,8.5c-7.6-1.1-15.5-0.5-22.9,2.2c-25.7,9.2-38.1,41.6-36.3,66.9c0.1,2.1,1.2,3.5,2.5,4.4c0,0,0,0,0,0c11.1,17.9,29.4,29.7,50.6,30.7c21,1,39-12.4,48.1-30.6c9.5,0.4,19.3-0.6,28.4-1.4C194.5,381.3,188.6,394.3,179.4,404.8z M287.5,346.9c-2.4,1.7-5.2,2.9-8,3.9c-11.6,4.4-24.7,4.8-37,4.9c-11.6,0.2-23.3-0.7-34.9-0.2c-11.8,0.5-23.6,2.4-35.4,2.2c-5.4-0.1-11-0.8-16.1-2.5c-2.4-0.8-4.9-2-7-3.4c-2.6-1.7-4.7-5.2-7.9-5.9c-3.1-0.6-7.1,0.1-10.6,1c1.7-3.8,6.5-5.8,10.7-7.2c8.3-2.9,17.4-3.6,26.1-4.1c9.5-0.5,18.9-0.3,28.4-0.5c17.6-0.3,35.1-0.8,52.6,1.6c5.5,0.7,12.3,1,18.9,2.1c7.2,1.2,14.9,2.6,21.3,6.3c0.2,0.1,0.4,0.2,0.6,0.4C288.6,346,287.9,346.6,287.5,346.9z M329.4,299.1c-6.8,12.4-10.5,26.4-11.1,40.5h-18.8c-0.1,0-0.2,0-0.3,0c-0.7-0.9-1.5-1.8-2.4-2.6c3-15.5-1.1-35.2-10.2-47.9c-8-11.2-24.5-10.5-36.7-12.6c-3.5-0.6-11.8-1.8-13.3-4.8c-2-4.1,6.1-9.4,9.1-11.5c13-8.9,28.6-12.8,42-21c0.7-0.4,1.2-0.9,1.6-1.5c2.2,1.7,4.6,3.1,7.2,4.2c11.2,4.8,24.7,3.7,36.6,3.8c7,0,13.5,0.6,20.3,2.2c4.7,1.1,9.4,2.1,14.1,2.7c1,1.3,2.6,2.1,4.6,2.2c2.1,0,4.1,0.2,6.2,0.4C357.6,262.7,340.4,279.2,329.4,299.1z M505.7,365.8c-3.8,14.1-10,27.9-19.6,39c-10.6,12.2-24.6,17.5-40.3,19.6c-15.6,2-31.5,0.2-45.9-6.4c-14.9-6.9-26.4-18.9-34.6-33c-1.1-2-2.8-2.7-4.5-2.7c-8.8-19.9-7.3-43.2,3.5-62.2c4.6-8.2,11.1-14.8,18.6-20.1c2.2,4.9,4.5,9.8,6.8,14.7c-10.7,14.1-15.5,33.6-14.4,50.2c0.1,2.1,1.2,3.5,2.5,4.4c0,0,0,0,0,0c11.1,17.9,29.4,29.7,50.6,30.7c21,1,39-12.4,48.1-30.6c10-19.8,5.5-41-9.5-56.8c-11.4-12-28.5-18.8-45-17c-1.2-3.4-2.6-6.8-3.9-10.2c2.5-0.5,5.1-1,7.6-1.4c23.5-3.4,51.4-0.3,68.9,17.2C511.2,317.6,511.4,344.7,505.7,365.8z" />
  <path fill="#010101" d="M252.3,235.1C252.5,235,252.6,235,252.3,235.1L252.3,235.1z" />
</svg>