<?xml version="1.0" encoding="utf-8"?>
<svg xmlns="http://www.w3.org/2000/svg" viewBox="0 0 64 64" width="512" height="512">
  <path fill="#faefde" d="M5 13H59V61H5z" />
  <path fill="#ed7899" d="M63,5v6c0,1.1-0.9,2-2,2H3c-1.1,0-2-0.9-2-2V5c0-1.1,0.9-2,2-2h58C62.1,3,63,3.9,63,5z" />
  <path fill="#b5c4e0" d="M54,19H10c-0.552,0-1,0.448-1,1v25h46V20C55,19.448,54.552,19,54,19z" />
  <path fill="#ced8ed" d="M9 27H55V35H9z" />
  <path fill="#f283a5" d="M63,5v3H1V5c0-1.1,0.9-2,2-2h58C62.1,3,63,3.9,63,5z" />
  <path fill="#8b8e98" d="M9 45H55V60H9z" />
  <path fill="#8d6c9f" d="M61,14c1.654,0,3-1.346,3-3V5c0-1.654-1.346-3-3-3H3C1.346,2,0,3.346,0,5v6c0,1.654,1.346,3,3,3h1 v46H1c-0.553,0-1,0.447-1,1s0.447,1,1,1h3h4h48h4h3c0.553,0,1-0.447,1-1s-0.447-1-1-1h-3V14H61z M2,11V5c0-0.552,0.448-1,1-1h58 c0.552,0,1,0.448,1,1v6c0,0.552-0.448,1-1,1H3C2.448,12,2,11.552,2,11z M10,60V46h44v14H10z M10,28h44v6H20.917 c-0.553,0-1,0.447-1,1s0.447,1,1,1H54v8H10V28z M54,26H10v-6h44V26z M58,60h-2V20c0-1.103-0.897-2-2-2H10c-1.103,0-2,0.897-2,2v40 H6V14h52V60z" />
  <path fill="#8d6c9f" d="M7 10c.553 0 1-.447 1-1V7c0-.553-.447-1-1-1S6 6.447 6 7v2C6 9.553 6.447 10 7 10zM12 10c.553 0 1-.447 1-1V7c0-.553-.447-1-1-1s-1 .447-1 1v2C11 9.553 11.447 10 12 10zM17 10c.553 0 1-.447 1-1V7c0-.553-.447-1-1-1s-1 .447-1 1v2C16 9.553 16.447 10 17 10zM22 10c.553 0 1-.447 1-1V7c0-.553-.447-1-1-1s-1 .447-1 1v2C21 9.553 21.447 10 22 10zM27 10c.553 0 1-.447 1-1V7c0-.553-.447-1-1-1s-1 .447-1 1v2C26 9.553 26.447 10 27 10zM32 10c.553 0 1-.447 1-1V7c0-.553-.447-1-1-1s-1 .447-1 1v2C31 9.553 31.447 10 32 10zM37 10c.553 0 1-.447 1-1V7c0-.553-.447-1-1-1s-1 .447-1 1v2C36 9.553 36.447 10 37 10zM42 10c.553 0 1-.447 1-1V7c0-.553-.447-1-1-1s-1 .447-1 1v2C41 9.553 41.447 10 42 10zM47 10c.553 0 1-.447 1-1V7c0-.553-.447-1-1-1s-1 .447-1 1v2C46 9.553 46.447 10 47 10zM52 10c.553 0 1-.447 1-1V7c0-.553-.447-1-1-1s-1 .447-1 1v2C51 9.553 51.447 10 52 10zM57 10c.553 0 1-.447 1-1V7c0-.553-.447-1-1-1s-1 .447-1 1v2C56 9.553 56.447 10 57 10zM34 40h-4c-.553 0-1 .447-1 1s.447 1 1 1h4c.553 0 1-.447 1-1S34.553 40 34 40zM17 34h-4c-.553 0-1 .447-1 1s.447 1 1 1h4c.553 0 1-.447 1-1S17.553 34 17 34z" />
</svg>