<?xml version="1.0" encoding="utf-8"?>
<svg xmlns="http://www.w3.org/2000/svg" x="0" y="0" viewBox="0 0 128 128" width="512" height="512">
  <path fill="#fff" d="M89,109.2h35v-60c0-5.5-4.5-10-10-10H89V109.2z" />
  <path fill="#75fa61" d="M4,109.2h85V14H14C8.5,14,4,18.5,4,24V109.2z" />
  <path fill="#e4e4e7" d="M114,39.2H89v30h35v-20C124,43.7,119.5,39.2,114,39.2z" />
  <circle cx="89" cy="109" r="15" fill="#fff" />
  <circle cx="34" cy="109" r="15" fill="#fff" />
  <path fill="#444b54" d="M114,36.2H92V14c0-1.7-1.3-3-3-3H14C6.8,11,1,16.8,1,24v85.2c0,1.7,1.3,3,3,3h12.3c1.5,8.4,8.9,14.8,17.7,14.8 c9.9,0,18-8.1,18-18s-8.1-18-18-18c-9,0-16.4,6.6-17.8,15.2H7V24c0-3.9,3.1-7,7-7h72v63c0,1.7,1.3,3,3,3s3-1.3,3-3V42.2h22 c3.9,0,7,3.1,7,7v57h-14.2C105.4,97.6,98,91,89,91c-9.9,0-18,8.1-18,18s8.1,18,18,18c8.8,0,16.2-6.4,17.7-14.8H124c1.7,0,3-1.3,3-3 v-60C127,42.1,121.2,36.2,114,36.2z M34,97c6.6,0,12,5.4,12,12s-5.4,12-12,12s-12-5.4-12-12S27.4,97,34,97z M89,121 c-6.6,0-12-5.4-12-12s5.4-12,12-12s12,5.4,12,12S95.6,121,89,121z" />
</svg>