<?xml version="1.0" encoding="utf-8"?>
<svg xmlns="http://www.w3.org/2000/svg" viewBox="0 0 80 80" width="320" height="320">
  <path fill="#dbf2ff" d="M63,63.5c-4.3,0-8-3.2-8.4-7.6l0-0.4h-29l0,0.4c-0.5,4.3-4.1,7.6-8.4,7.6s-8-3.2-8.4-7.6l-0.1-0.4 H5.3c-2.7,0-4.8-2.2-4.8-4.8V37.5c0-2.2,1.4-4.1,3.5-4.6l9.6-3.1l7.5-10.3c1.8-1.9,4.5-3,7.2-3h23.4c2.7,0,5.3,1.1,7.2,3l7.5,10.2 l9.6,3.1c2.1,0.6,3.5,2.5,3.5,4.7v13.2c0,2.7-2.2,4.8-4.8,4.8h-3.2l-0.1,0.4C71,60.3,67.3,63.5,63,63.5z" />
  <path fill="#7496c4" d="M51.7,17c2.5,0,5,1,6.8,2.8l7.4,10.1l0.2,0.3l0.3,0.1l9.5,3c1.9,0.5,3.1,2.2,3.1,4.2v13.2 c0,2.4-1.9,4.3-4.3,4.3h-2.7H71l-0.1,0.9C70.5,59.9,67.1,63,63,63s-7.5-3.1-7.9-7.1L55,55h-0.9H25.9H25l-0.1,0.9 C24.5,59.9,21.1,63,17,63s-7.5-3.1-7.9-7.1L9,55H8.1H5.3C2.9,55,1,53.1,1,50.7V37.5c0-1.9,1.3-3.6,3.2-4.2l9.5-3l0.3-0.1l0.2-0.3 l7.4-10.1c1.8-1.8,4.3-2.8,6.8-2.8H51.7 M51.7,16H28.3c-2.8,0-5.6,1.1-7.6,3.2l-7.4,10.2l-9.5,3C1.6,33,0,35.1,0,37.5v13.2 C0,53.6,2.4,56,5.3,56h2.7c0.5,4.5,4.3,8,8.9,8s8.4-3.5,8.9-8h28.1c0.5,4.5,4.3,8,8.9,8s8.4-3.5,8.9-8h2.7c2.9,0,5.3-2.4,5.3-5.3 V37.5c0-2.4-1.6-4.5-3.9-5.1l-9.5-3l-7.4-10.2C57.2,17.1,54.5,16,51.7,16L51.7,16z" />
  <path fill="#66798f" d="M46,36h-2v-8c0-2.2-1.8-4-4-4c-2.2,0-4,1.8-4,4v8h-2v-8c0-3.3,2.7-6,6-6s6,2.7,6,6V36z" />
  <path fill="#f5ce85" d="M28.5,47.5V36c0-1.9,1.6-3.5,3.5-3.5h16c1.9,0,3.5,1.6,3.5,3.5v11.5H28.5z" />
  <path fill="#967a44" d="M48,33c1.7,0,3,1.3,3,3v11H29V36c0-1.7,1.3-3,3-3H48 M48,32H32c-2.2,0-4,1.8-4,4v12h24V36 C52,33.8,50.2,32,48,32L48,32z" />
  <path fill="#ffeea3" d="M29 39H51V41H29zM29 43H51V45H29zM29 37h22v-1c0-.4-.1-.7-.2-1H29.2c-.1.3-.2.6-.2 1V37z" />
</svg>